<svg xmlns="http://www.w3.org/2000/svg" fill="none" viewBox="0 0 189 100" height="100" width="189">
<path fill="black" d="M29.9718 0.932701C3.62022 7.49195 -4.86206 40.062 14.8168 59.1743C21.4896 65.6204 30.198 68.6739 40.2637 68.1084C53.2698 67.2037 63.2224 60.7576 68.7641 49.3354C72.9487 40.7405 73.1749 28.866 69.2165 20.045C62.6569 5.45632 45.5792 -2.91238 29.9718 0.932701ZM26.3527 22.1937C26.692 23.0984 30.0849 23.0984 40.1506 22.1937C47.5019 21.5152 54.0615 21.1759 54.5139 21.5152C55.0794 21.8544 55.5318 23.0984 55.5318 24.4555C55.5318 26.6042 55.0794 26.7173 47.615 25.9257L39.6982 25.1341L39.5851 31.1279C39.3589 40.5144 38.1148 49.4485 36.8708 49.9009C36.3053 50.014 35.0612 49.7878 34.3826 49.3354C33.2516 48.6569 33.4778 46.0558 35.0612 37.8002C36.1922 31.9195 36.8708 26.6042 36.5315 26.1519C36.3053 25.5864 33.9302 25.4733 31.329 25.8126C26.2396 26.6042 21.7157 24.5686 23.186 22.1937C24.2039 20.4974 25.7872 20.4974 26.3527 22.1937Z"></path>
<path fill="#FA1200" d="M3.16784 77.0426C0.905901 79.6437 0.679707 82.0186 2.60236 83.9412C4.6381 85.9768 9.16199 85.6375 9.16199 83.6019C9.16199 82.471 8.37031 81.9055 7.23934 82.1317C5.99527 82.3579 5.20359 81.7924 5.20359 80.7746C5.20359 79.5306 6.44766 79.0783 10.1799 79.3044C12.8942 79.4175 15.2692 79.7568 15.6085 79.983C16.2871 80.7746 11.4239 92.4229 9.50128 94.5717C5.88217 98.5298 2.14997 96.0418 4.7512 91.4051C6.44766 88.0124 5.65598 86.9946 2.48926 88.691C-2.37391 91.1789 0.453513 100 6.10837 100C10.5192 100 13.3466 96.8335 16.5133 88.804C19.68 80.8877 19.68 80.8877 24.317 80.5484C31.2159 80.0961 29.9718 78.0604 22.1681 77.2688C18.4359 76.9295 13.1204 76.251 10.293 75.6856C5.99527 75.007 4.8643 75.2332 3.16784 77.0426Z"></path>
<path fill="#FA1200" d="M35.4005 85.5245C31.6683 93.667 28.5016 96.9466 24.9956 96.3812C21.7158 95.9288 22.0551 93.8932 25.5611 93.4408C29.4064 92.9884 32.5731 88.2386 30.6504 85.8637C26.0134 80.3223 15.043 90.2743 19.0014 96.4942C20.4717 98.7561 25.3349 99.4346 28.5016 97.7382C30.198 96.7204 31.2159 96.7204 32.1207 97.6251C35.0612 100.566 38.7934 98.1906 44.3352 89.935C45.6923 87.7863 46.484 87.447 48.0674 88.3517C49.99 89.3695 49.7638 89.8219 46.0316 92.7623C43.7697 94.5717 41.9601 96.3812 41.9601 96.7204C41.9601 98.0775 51.121 98.8691 53.1567 97.8513C54.5139 97.0597 55.6449 97.1728 56.4366 97.9644C58.4723 100 62.9962 97.2859 65.9367 92.1968C69.5558 85.7507 71.5916 86.0899 69.1034 92.5361C66.1629 100.452 73.4011 101.018 77.5857 93.2146C78.1512 92.3099 77.1333 92.7623 75.3238 94.3455L72.2701 97.1728L72.9487 92.5361C73.6273 89.0303 73.288 87.5601 72.0439 86.4292C71.0261 85.6376 70.2344 84.2805 70.2344 83.4888C70.2344 82.5841 69.6689 81.9056 69.1034 81.9056C67.8594 81.9056 67.5201 82.6972 66.3891 87.7863C65.5974 91.4052 60.6211 97.5121 59.4902 96.3812C59.0378 95.9288 59.4902 93.5539 60.508 90.9528C62.77 85.2983 62.77 84.1674 60.7342 84.1674C59.8295 84.1674 58.5854 85.8637 57.7937 88.0125C56.3235 92.7623 53.0436 95.8157 50.5555 94.7979C47.9543 93.7801 48.2936 92.6492 52.252 89.4826C56.6627 86.0899 55.9842 84.7328 49.99 84.3936C45.8054 84.0543 45.2399 84.3936 43.2042 88.3517C42.0732 90.7266 40.0375 93.667 38.6803 94.7979C36.5315 96.7204 36.3053 96.7204 36.3053 95.0241C36.3053 94.0063 37.5493 90.0481 39.1327 86.203C42.4125 78.0605 42.4125 78.5129 40.2637 78.5129C39.3589 78.5129 37.2101 81.5663 35.4005 85.5245ZM27.0313 88.9172C26.692 89.7088 25.5611 90.6135 24.317 90.8397C22.5074 91.179 22.3943 90.9528 23.7515 89.3695C25.5611 87.2208 27.5968 86.9946 27.0313 88.9172Z"></path>
<path fill="black" d="M82.644 53.684C82.644 53.756 82.56 53.792 82.392 53.792C82.248 53.792 82.08 53.756 81.888 53.684C81.72 53.612 81.576 53.504 81.456 53.36C81.288 53.216 81.156 53.096 81.06 53C80.988 52.904 80.952 52.784 80.952 52.64C80.952 52.448 81.024 52.136 81.168 51.704C81.36 50.84 81.708 49.604 82.212 47.996C82.74 46.388 83.208 45.176 83.616 44.36C83.784 44.072 83.916 43.772 84.012 43.46C84.108 43.148 84.168 42.944 84.192 42.848C84.312 42.416 84.384 42.164 84.408 42.092L84.372 41.732C84.372 41.636 84.396 41.54 84.444 41.444C84.492 41.348 84.576 41.24 84.696 41.12C85.032 40.832 85.392 40.268 85.776 39.428L87.144 35.504L87.576 34.28C87.6 34.184 87.648 34.016 87.72 33.776C87.792 33.536 87.828 33.368 87.828 33.272C87.828 33.176 87.804 33.128 87.756 33.128C87.564 33.176 87.18 33.212 86.604 33.236C86.316 33.284 86.1 33.32 85.956 33.344C85.812 33.344 85.704 33.356 85.632 33.38H85.38C84.924 33.38 84.696 33.212 84.696 32.876C84.744 32.492 84.876 32.18 85.092 31.94C85.332 31.676 85.632 31.532 85.992 31.508L87.396 31.184C87.612 31.136 87.9 31.076 88.26 31.004C88.644 30.908 88.908 30.884 89.052 30.932C89.364 30.716 89.52 30.548 89.52 30.428C89.52 30.308 89.58 30.212 89.7 30.14C89.82 30.068 89.964 30.032 90.132 30.032C90.468 30.032 90.708 30.14 90.852 30.356C90.948 30.5 91.152 30.572 91.464 30.572C91.944 30.572 92.784 30.44 93.984 30.176C94.176 30.152 94.5 30.128 94.956 30.104C95.436 30.056 95.832 30.032 96.144 30.032C96.576 30.032 96.924 30.068 97.188 30.14C97.404 30.092 97.596 30.068 97.764 30.068C97.932 30.068 98.076 30.056 98.196 30.032C98.604 30.032 98.856 29.996 98.952 29.924C99.168 29.972 99.408 30.02 99.672 30.068C99.96 30.092 100.164 30.128 100.284 30.176C100.404 30.224 100.512 30.284 100.608 30.356C100.68 30.452 100.716 30.536 100.716 30.608C100.716 30.68 100.704 30.728 100.68 30.752L100.608 30.716C100.632 30.716 100.668 30.74 100.716 30.788C100.788 30.812 100.86 30.86 100.932 30.932C101.292 31.124 101.412 31.4 101.292 31.76C101.268 31.904 101.208 32.012 101.112 32.084C101.04 32.132 100.848 32.168 100.536 32.192C100.224 32.192 99.816 32.18 99.312 32.156C98.4 32.036 97.608 31.976 96.936 31.976C95.928 31.976 94.548 32.096 92.796 32.336C92.364 32.36 91.956 32.42 91.572 32.516C91.212 32.612 90.984 32.672 90.888 32.696C90.768 32.696 90.588 32.876 90.348 33.236C90.108 33.596 89.892 34.052 89.7 34.604C89.556 34.82 89.304 35.396 88.944 36.332C88.584 37.244 88.344 37.844 88.224 38.132C87.696 39.524 87.396 40.28 87.324 40.4C87.612 40.496 88.188 40.544 89.052 40.544C90.3 40.544 91.956 40.448 94.02 40.256C95.124 40.04 95.76 39.968 95.928 40.04C96.072 40.136 96.192 40.316 96.288 40.58C96.408 40.844 96.468 41.084 96.468 41.3C96.468 41.42 96.444 41.528 96.396 41.624C96.324 41.792 96.06 41.924 95.604 42.02C95.172 42.116 94.392 42.224 93.264 42.344C92.208 42.44 90.672 42.488 88.656 42.488C87.6 42.488 86.976 42.464 86.784 42.416C86.736 42.44 86.664 42.512 86.568 42.632C86.496 42.752 86.46 42.896 86.46 43.064C86.028 43.832 85.392 45.32 84.552 47.528C83.712 49.736 83.292 51.056 83.292 51.488C83.124 51.92 82.992 52.412 82.896 52.964C82.872 53.06 82.836 53.192 82.788 53.36C82.74 53.528 82.692 53.636 82.644 53.684ZM97.1098 51.704C97.0378 51.56 96.9178 51.416 96.7498 51.272C96.6058 51.104 96.5338 50.996 96.5338 50.948C96.5338 50.684 96.4738 50.48 96.3538 50.336C96.3058 50.288 96.2818 50.18 96.2818 50.012C96.2818 49.628 96.4618 48.98 96.8218 48.068C97.2058 47.132 97.6978 46.124 98.2978 45.044C98.4418 44.9 98.6218 44.648 98.8378 44.288C99.0778 43.928 99.2338 43.724 99.3058 43.676C99.3058 43.58 99.3418 43.496 99.4138 43.424C99.4858 43.328 99.5698 43.28 99.6658 43.28V43.064C99.6658 42.848 100.062 42.332 100.854 41.516C101.646 40.676 102.294 40.1 102.798 39.788C103.398 39.38 104.01 39.176 104.634 39.176C105.066 39.176 105.438 39.296 105.75 39.536C105.87 39.68 106.422 40.196 107.406 41.084L108.738 42.272L108.09 44.072C107.874 44.72 107.766 45.308 107.766 45.836C107.766 46.748 108.03 47.624 108.558 48.464C108.678 48.728 108.918 48.98 109.278 49.22C109.638 49.46 109.998 49.604 110.358 49.652C110.886 49.748 111.15 50.012 111.15 50.444C111.15 50.924 110.934 51.212 110.502 51.308C110.406 51.332 110.262 51.344 110.07 51.344C108.654 51.344 107.43 50.348 106.398 48.356C106.302 48.212 106.17 47.948 106.002 47.564C105.858 47.18 105.774 46.916 105.75 46.772C105.606 46.964 105.426 47.192 105.21 47.456C104.994 47.72 104.79 47.948 104.598 48.14C101.982 50.756 99.9178 52.064 98.4058 52.064C97.9258 52.064 97.4938 51.944 97.1098 51.704ZM98.4058 49.688C98.4058 49.808 98.5258 49.844 98.7658 49.796C99.0298 49.748 99.3418 49.628 99.7018 49.436C100.086 49.244 100.47 48.992 100.854 48.68C102.918 46.904 104.406 45.356 105.318 44.036L106.11 42.74C105.87 42.236 105.618 41.876 105.354 41.66C105.09 41.42 104.85 41.3 104.634 41.3C104.13 41.3 103.338 41.936 102.258 43.208C101.178 44.456 100.194 45.932 99.3058 47.636C99.0898 48.044 98.8978 48.464 98.7298 48.896C98.5618 49.304 98.4538 49.568 98.4058 49.688ZM113.653 53C113.581 53.024 113.461 53.036 113.293 53.036C112.909 53.036 112.609 52.844 112.393 52.46C112.177 52.076 112.069 51.548 112.069 50.876C112.069 50.324 112.141 49.688 112.285 48.968C112.549 48.272 112.681 47.768 112.681 47.456C112.753 47 112.993 46.184 113.401 45.008C113.833 43.808 114.109 43.088 114.229 42.848C114.325 42.848 114.409 42.776 114.481 42.632C114.553 42.464 114.589 42.284 114.589 42.092C114.589 41.876 114.625 41.66 114.697 41.444C114.793 41.204 114.889 41.036 114.985 40.94C114.985 40.868 115.009 40.736 115.057 40.544C115.129 40.352 115.165 40.22 115.165 40.148C115.165 40.1 115.189 40.016 115.237 39.896C115.309 39.752 115.345 39.644 115.345 39.572C115.729 38.828 116.401 37.16 117.361 34.568C118.321 31.952 118.801 30.5 118.801 30.212C118.801 29.828 118.993 29.636 119.377 29.636C119.497 29.516 119.689 29.456 119.953 29.456L120.529 30.032C120.697 30.2 120.805 30.38 120.853 30.572C120.901 30.74 120.925 31.004 120.925 31.364C120.925 31.724 120.877 32.036 120.781 32.3C120.685 32.564 120.445 33.104 120.061 33.92C119.989 34.088 119.893 34.292 119.773 34.532C119.653 34.748 119.521 35.024 119.377 35.36C119.329 35.48 119.137 35.912 118.801 36.656C118.561 37.136 118.441 37.412 118.441 37.484C118.441 37.556 118.393 37.712 118.297 37.952C118.201 38.168 118.117 38.396 118.045 38.636C117.853 39.02 117.541 39.704 117.109 40.688C116.701 41.648 116.497 42.176 116.497 42.272C116.497 42.536 116.437 42.728 116.317 42.848C116.245 42.848 116.197 42.908 116.173 43.028C116.149 43.124 116.137 43.196 116.137 43.244C116.137 43.484 115.945 44.12 115.561 45.152L115.237 46.196C114.781 47.756 114.457 48.896 114.265 49.616C114.097 50.336 114.013 50.948 114.013 51.452C114.013 52.052 113.989 52.436 113.941 52.604C113.917 52.772 113.821 52.904 113.653 53ZM122.111 53.108C121.079 53.108 120.227 52.724 119.555 51.956C118.883 51.188 118.547 50.228 118.547 49.076C118.547 47.924 118.799 46.664 119.303 45.296C119.831 43.904 120.503 42.656 121.319 41.552C122.135 40.448 122.963 39.704 123.803 39.32C124.283 39.056 124.823 38.924 125.423 38.924C125.879 38.924 126.395 39.056 126.971 39.32C127.379 39.488 127.691 39.692 127.907 39.932C128.123 40.172 128.315 40.544 128.483 41.048C128.555 41.48 128.591 41.78 128.591 41.948C128.591 42.092 128.531 42.404 128.411 42.884C128.123 43.772 127.739 44.528 127.259 45.152C126.803 45.752 126.203 46.268 125.459 46.7C125.075 46.94 124.595 47.06 124.019 47.06C123.515 47.06 123.035 46.976 122.579 46.808C122.147 46.616 121.811 46.34 121.571 45.98L121.319 45.692L121.211 45.98C120.707 47.276 120.455 48.38 120.455 49.292C120.455 49.916 120.575 50.42 120.815 50.804C120.983 51.068 121.391 51.2 122.039 51.2C122.519 51.2 122.867 51.152 123.083 51.056C123.443 50.936 123.755 50.792 124.019 50.624C124.307 50.432 124.583 50.24 124.847 50.048L124.991 49.976H124.955C125.243 49.832 125.483 49.7 125.675 49.58C125.867 49.46 125.999 49.376 126.071 49.328C126.119 49.328 126.167 49.316 126.215 49.292C126.263 49.268 126.311 49.22 126.359 49.148C126.575 49.052 126.827 49.088 127.115 49.256C127.403 49.424 127.547 49.64 127.547 49.904C127.499 50.096 127.283 50.408 126.899 50.84C126.515 51.272 126.227 51.5 126.035 51.524C126.011 51.524 125.927 51.56 125.783 51.632C125.639 51.704 125.543 51.764 125.495 51.812H125.531C125.315 52.1 125.099 52.244 124.883 52.244H124.595C124.499 52.436 124.175 52.628 123.623 52.82C123.095 53.012 122.591 53.108 122.111 53.108ZM123.731 45.188C124.451 45.188 125.111 44.78 125.711 43.964C126.287 43.196 126.575 42.428 126.575 41.66C126.575 41.252 126.491 40.964 126.323 40.796C126.179 40.724 126.047 40.688 125.927 40.688C125.807 40.688 125.603 40.724 125.315 40.796C125.003 40.868 124.523 41.204 123.875 41.804C123.227 42.38 122.747 42.896 122.435 43.352L121.967 44.108C122.159 44.036 122.339 44 122.507 44C122.699 43.976 122.807 43.988 122.831 44.036C122.831 44.372 122.915 44.648 123.083 44.864C123.251 45.08 123.467 45.188 123.731 45.188ZM150.558 53.792C150.534 53.744 150.462 53.648 150.342 53.504C150.222 53.36 150.054 53.144 149.838 52.856C149.55 52.136 149.406 51.056 149.406 49.616C149.406 49.112 149.418 48.716 149.442 48.428C149.418 48.332 149.406 48.128 149.406 47.816C149.406 46.856 149.538 45.416 149.802 43.496C150.09 41.552 150.366 40.064 150.63 39.032C150.726 37.544 150.822 36.512 150.918 35.936C151.014 35.336 151.062 34.988 151.062 34.892C151.014 34.796 150.786 35.036 150.378 35.612C149.97 36.164 149.526 36.86 149.046 37.7C148.686 38.3 148.23 38.984 147.678 39.752C147.558 39.92 147.33 40.352 146.994 41.048L145.986 43.136C144.69 45.128 143.766 46.46 143.214 47.132C142.662 47.78 142.17 48.104 141.738 48.104C141.594 48.104 141.486 48.092 141.414 48.068C140.718 47.9 140.238 47.624 139.974 47.24C139.734 46.832 139.59 46.1 139.542 45.044C139.518 44.612 139.506 43.724 139.506 42.38C139.578 42.212 139.602 41.972 139.578 41.66C139.554 41.348 139.554 41.156 139.578 41.084C139.578 41.036 139.626 40.844 139.722 40.508C139.818 40.148 139.878 39.848 139.902 39.608C139.974 39.056 140.034 38.432 140.082 37.736C140.154 37.04 140.19 36.464 140.19 36.008C140.19 35.552 140.166 35.312 140.118 35.288V35.324C140.118 35.444 139.974 35.72 139.686 36.152C139.374 36.536 139.038 37.076 138.678 37.772C138.342 38.444 137.838 39.476 137.166 40.868L135.798 43.712C135.726 44.216 135.522 44.888 135.186 45.728C134.874 46.544 134.538 47.3 134.178 47.996C133.938 48.644 133.662 49.328 133.35 50.048C133.038 50.768 132.774 51.272 132.558 51.56C132.318 52.184 132.114 52.628 131.946 52.892C131.802 53.132 131.634 53.252 131.442 53.252C131.274 53.252 131.01 53.132 130.65 52.892C130.41 52.652 130.218 52.448 130.074 52.28C129.954 52.088 129.894 51.884 129.894 51.668C129.894 51.428 129.99 51.14 130.182 50.804C130.494 50.444 130.842 49.832 131.226 48.968C131.634 48.08 131.826 47.564 131.802 47.42C131.778 47.324 131.838 47.168 131.982 46.952C132.126 46.712 132.342 46.376 132.63 45.944C132.606 45.848 132.714 45.5 132.954 44.9C133.194 44.276 133.506 43.58 133.89 42.812C134.106 42.428 134.202 42.14 134.178 41.948C134.226 41.876 134.286 41.744 134.358 41.552C134.454 41.36 134.562 41.228 134.682 41.156C134.706 41.036 134.79 40.808 134.934 40.472C134.958 40.376 135.006 40.232 135.078 40.04C135.15 39.848 135.198 39.692 135.222 39.572C135.438 39.092 135.63 38.744 135.798 38.528C135.846 38.48 135.918 38.36 136.014 38.168C136.134 37.976 136.23 37.844 136.302 37.772C136.398 37.46 136.614 37.016 136.95 36.44C137.31 35.864 137.694 35.264 138.102 34.64L138.534 33.956C138.654 33.764 138.774 33.524 138.894 33.236C139.038 32.924 139.218 32.624 139.434 32.336C139.482 32.264 139.578 32.108 139.722 31.868C139.89 31.628 140.07 31.34 140.262 31.004C140.382 30.836 140.598 30.512 140.91 30.032C141.222 29.528 141.438 29.276 141.558 29.276C141.774 29.228 142.146 29.444 142.674 29.924C143.226 30.38 143.502 30.752 143.502 31.04C143.502 31.232 143.43 31.688 143.286 32.408C143.166 33.128 143.022 33.776 142.854 34.352C142.83 34.736 142.77 35.24 142.674 35.864C142.602 36.464 142.542 36.908 142.494 37.196C142.254 38.516 142.11 39.512 142.062 40.184C142.014 40.88 141.906 41.528 141.738 42.128C141.57 42.728 141.462 43.112 141.414 43.28C141.534 43.568 141.594 43.856 141.594 44.144V44.936L142.962 43.46C143.058 43.292 143.166 43.124 143.286 42.956C143.406 42.788 143.514 42.62 143.61 42.452C144.066 41.828 144.438 41.264 144.726 40.76C144.726 40.664 144.786 40.52 144.906 40.328C145.026 40.112 145.11 39.932 145.158 39.788C145.326 39.692 145.47 39.548 145.59 39.356C145.71 39.14 145.758 38.936 145.734 38.744C146.718 37.304 147.894 35.66 149.262 33.812C150.63 31.94 151.506 30.848 151.89 30.536C152.298 30.248 152.67 30.104 153.006 30.104C153.414 30.104 153.798 30.296 154.158 30.68C154.518 31.088 154.698 31.472 154.698 31.832C154.698 32.12 154.614 32.48 154.446 32.912L153.906 34.64C153.402 36.08 153.162 36.992 153.186 37.376C153.042 37.736 152.934 38.252 152.862 38.924C152.79 39.068 152.718 39.26 152.646 39.5C152.598 39.74 152.526 39.896 152.43 39.968C152.43 40.064 152.454 40.232 152.502 40.472C152.55 40.688 152.574 40.88 152.574 41.048C152.574 41.216 152.562 41.336 152.538 41.408C152.01 44.648 151.746 47.096 151.746 48.752C151.746 50.312 151.986 51.152 152.466 51.272H152.502C152.574 51.272 152.61 51.344 152.61 51.488C152.61 51.608 152.574 51.872 152.502 52.28C152.526 52.496 152.502 52.736 152.43 53C152.358 53.288 152.286 53.48 152.214 53.576C152.118 53.696 152.022 53.792 151.926 53.864C151.83 53.936 151.722 53.972 151.602 53.972C151.506 53.972 151.158 53.912 150.558 53.792ZM158.504 51.812C158.072 51.908 157.604 51.776 157.1 51.416C156.596 51.056 156.296 50.66 156.2 50.228C156.176 50.132 156.164 49.976 156.164 49.76C156.164 48.872 156.5 47.732 157.172 46.34C157.868 44.924 158.708 43.628 159.692 42.452C160.676 41.252 161.576 40.496 162.392 40.184C162.896 39.92 163.22 39.788 163.364 39.788C163.508 39.788 163.832 39.92 164.336 40.184C164.672 40.28 164.924 40.388 165.092 40.508C165.26 40.628 165.476 40.868 165.74 41.228C166.052 41.852 166.28 42.62 166.424 43.532C166.568 44.036 166.64 44.396 166.64 44.612C166.64 44.804 166.568 44.972 166.424 45.116C166.4 45.14 166.352 45.188 166.28 45.26C166.232 45.332 166.208 45.392 166.208 45.44C166.208 45.464 166.232 45.476 166.28 45.476C166.28 45.5 166.268 45.56 166.244 45.656C166.22 45.728 166.172 45.836 166.1 45.98C165.812 46.892 165.668 47.672 165.668 48.32C165.668 48.536 165.692 48.764 165.74 49.004C165.98 49.628 166.388 49.94 166.964 49.94C167.444 49.94 167.9 49.724 168.332 49.292C168.716 49.028 168.992 48.848 169.16 48.752C169.352 48.632 169.448 48.656 169.448 48.824C169.472 48.848 169.52 48.884 169.592 48.932C169.664 48.98 169.736 49.004 169.808 49.004C169.976 49.004 170.06 49.112 170.06 49.328C170.06 49.544 169.976 49.784 169.808 50.048C169.64 50.216 169.508 50.36 169.412 50.48C169.316 50.6 169.268 50.696 169.268 50.768L168.728 51.272C168.272 51.536 167.732 51.668 167.108 51.668C166.46 51.668 165.944 51.536 165.56 51.272C165.224 51.032 164.9 50.684 164.588 50.228C164.276 49.772 164.072 49.364 163.976 49.004L163.796 48.644L162.752 49.328C162.512 49.568 162.236 49.82 161.924 50.084C161.612 50.324 161.408 50.492 161.312 50.588C161.12 50.828 160.952 50.948 160.808 50.948H160.448C160.448 51.116 160.208 51.308 159.728 51.524C159.272 51.716 158.864 51.812 158.504 51.812ZM158.144 49.868C158.408 49.868 159.08 49.496 160.16 48.752C161.24 47.984 161.924 47.42 162.212 47.06L163.256 45.98C163.64 45.548 163.94 45.056 164.156 44.504C164.396 43.952 164.516 43.448 164.516 42.992C164.516 42.584 164.456 42.296 164.336 42.128C164.24 41.84 164.096 41.696 163.904 41.696C163.808 41.696 163.532 41.78 163.076 41.948C162.62 42.236 161.972 42.896 161.132 43.928C160.316 44.96 159.584 46.028 158.936 47.132C158.288 48.212 157.964 49.004 157.964 49.508C157.964 49.58 157.988 49.652 158.036 49.724C158.084 49.796 158.12 49.844 158.144 49.868ZM174.926 37.232C174.758 37.064 174.614 36.776 174.494 36.368C174.374 35.96 174.374 35.756 174.494 35.756C174.686 35.732 174.902 35.528 175.142 35.144C175.406 34.736 175.526 34.4 175.502 34.136C175.502 34.04 175.538 33.956 175.61 33.884C175.682 33.788 175.766 33.728 175.862 33.704C176.054 33.584 176.222 33.524 176.366 33.524C176.774 33.524 177.146 33.812 177.482 34.388C177.626 34.7 177.698 34.976 177.698 35.216C177.698 35.432 177.638 35.66 177.518 35.9C177.398 36.116 177.182 36.404 176.87 36.764C176.462 37.316 176.078 37.592 175.718 37.592C175.478 37.592 175.214 37.472 174.926 37.232ZM171.434 51.848C171.098 51.512 170.93 51.032 170.93 50.408C170.93 50.072 170.99 49.784 171.11 49.544C171.11 49.424 171.134 49.28 171.182 49.112C171.23 48.944 171.254 48.836 171.254 48.788C171.23 48.644 171.326 48.248 171.542 47.6C171.974 46.64 172.549 44.948 173.27 42.524C173.27 42.404 173.318 42.308 173.414 42.236C173.51 42.14 173.654 42.08 173.846 42.056C174.038 42.008 174.17 41.984 174.242 41.984C174.386 41.984 174.506 42.044 174.602 42.164C174.722 42.26 174.878 42.452 175.07 42.74C175.214 42.884 175.286 43.1 175.286 43.388C175.286 43.844 175.13 44.396 174.818 45.044C174.506 45.74 174.302 46.34 174.206 46.844C173.918 47.492 173.69 48.092 173.522 48.644C173.474 48.788 173.402 49.076 173.306 49.508C173.21 49.94 173.078 50.288 172.91 50.552C172.766 51.224 172.634 51.692 172.514 51.956C172.394 52.22 172.262 52.352 172.118 52.352C171.95 52.352 171.722 52.184 171.434 51.848ZM180.632 52.712C179.816 52.712 179.108 52.544 178.508 52.208C177.908 51.872 177.512 51.416 177.32 50.84C177.152 50.408 177.068 50.168 177.068 50.12C177.068 49.976 177.152 49.868 177.32 49.796C177.488 49.796 177.68 49.868 177.896 50.012C178.136 50.156 178.328 50.252 178.472 50.3C178.832 50.636 179.324 50.804 179.948 50.804C180.428 50.804 180.86 50.708 181.244 50.516C181.652 50.324 181.88 50.096 181.928 49.832C181.928 49.712 181.808 49.292 181.568 48.572C180.968 47.708 180.5 46.832 180.164 45.944C179.852 45.032 179.696 44.264 179.696 43.64C179.696 43.184 179.828 42.716 180.092 42.236C180.356 41.756 180.716 41.348 181.172 41.012C181.772 40.388 182.492 39.824 183.332 39.32C184.196 38.816 184.976 38.468 185.672 38.276C185.96 38.276 186.308 38.312 186.716 38.384C187.148 38.456 187.448 38.54 187.616 38.636C187.88 38.732 188.132 38.996 188.372 39.428C188.612 39.86 188.732 40.268 188.732 40.652C188.732 41.036 188.528 41.564 188.12 42.236C188.072 42.404 187.976 42.632 187.832 42.92C187.688 43.208 187.616 43.388 187.616 43.46C187.52 43.7 187.364 43.82 187.148 43.82C186.932 43.82 186.716 43.724 186.5 43.532C186.308 43.316 186.152 43.064 186.032 42.776C185.96 42.488 185.924 42.236 185.924 42.02C185.924 41.732 186.02 41.444 186.212 41.156C186.476 40.892 186.608 40.712 186.608 40.616C186.608 40.52 186.476 40.472 186.212 40.472C185.924 40.472 185.372 40.7 184.556 41.156C183.74 41.612 183.092 42.092 182.612 42.596C182.18 43.004 181.916 43.316 181.82 43.532C181.724 43.724 181.676 44.024 181.676 44.432C181.676 44.792 181.748 45.224 181.892 45.728C182.06 46.208 182.228 46.532 182.396 46.7C182.444 46.796 182.54 47 182.684 47.312C182.852 47.624 183.044 47.924 183.26 48.212C183.74 49.292 183.98 50.132 183.98 50.732C183.98 51.428 183.704 51.932 183.152 52.244C182.624 52.556 181.784 52.712 180.632 52.712Z"></path>
</svg>
