<?xml version="1.0" standalone="no"?>
<!DOCTYPE svg PUBLIC "-//W3C//DTD SVG 20010904//EN"
 "http://www.w3.org/TR/2001/REC-SVG-20010904/DTD/svg10.dtd">
<svg version="1.0" xmlns="http://www.w3.org/2000/svg"
 width="1512.000000pt" height="1512.000000pt" viewBox="0 0 1512.000000 1512.000000"
 preserveAspectRatio="xMidYMid meet">
<metadata>
Created by potrace 1.11, written by Peter Selinger 2001-2013
</metadata>
<g transform="translate(0.000000,1512.000000) scale(0.100000,-0.100000)"
fill="#000000" stroke="none">
<path d="M2818 11555 c-1 -2 -32 -6 -68 -9 -36 -4 -75 -8 -85 -10 -11 -2 -42
-7 -70 -10 -27 -4 -57 -9 -65 -11 -8 -2 -30 -7 -49 -10 -49 -8 -173 -43 -281
-78 -52 -17 -99 -32 -105 -33 -18 -4 -136 -55 -214 -91 -42 -20 -78 -37 -81
-37 -24 -5 -332 -195 -385 -238 -5 -5 -28 -22 -50 -39 -160 -123 -371 -336
-478 -481 -15 -20 -32 -42 -39 -50 -7 -8 -18 -23 -25 -33 -7 -11 -42 -66 -78
-122 -85 -134 -246 -453 -228 -453 3 0 1 -6 -4 -12 -16 -21 -94 -256 -108
-325 -2 -10 -10 -49 -19 -88 -16 -71 -22 -103 -32 -165 -3 -19 -7 -46 -9 -59
-25 -149 -26 -596 -1 -716 2 -11 7 -42 10 -70 11 -78 17 -110 36 -185 6 -25
12 -54 14 -65 2 -11 5 -22 6 -25 1 -3 3 -9 4 -15 7 -45 86 -274 120 -350 13
-27 26 -59 30 -71 19 -61 225 -417 283 -489 5 -5 24 -30 43 -55 112 -146 276
-323 390 -420 82 -70 88 -75 170 -136 115 -85 116 -85 255 -166 53 -31 213
-108 224 -108 6 0 11 -4 11 -10 0 -5 3 -9 8 -8 7 1 18 -2 92 -32 140 -55 320
-103 510 -134 82 -14 126 -19 255 -32 79 -8 372 -8 455 0 141 14 226 24 265
32 11 3 36 7 55 10 19 3 43 7 52 10 10 3 30 7 45 10 99 17 324 84 430 127 34
14 64 22 67 19 3 -3 6 0 6 6 0 7 9 12 20 12 11 0 20 4 20 10 0 5 3 9 8 8 7 -2
168 75 237 114 54 31 235 151 262 174 12 11 32 27 45 38 106 86 229 203 313
297 76 85 215 272 215 288 0 5 4 11 9 13 11 4 141 222 141 236 0 7 5 12 10 12
6 0 10 6 10 13 0 7 10 30 21 52 93 173 213 553 234 745 2 14 4 25 5 25 1 0 4
18 5 40 2 22 4 40 5 40 1 0 7 56 16 170 8 98 8 323 0 425 -4 41 -8 98 -10 125
-2 28 -7 66 -10 85 -13 76 -16 96 -22 130 -3 19 -9 51 -14 70 -5 19 -11 46
-14 60 -18 92 -87 306 -130 405 -40 90 -102 211 -111 217 -5 4 -6 8 -2 8 4 0
-6 20 -23 44 -16 25 -30 47 -30 51 0 10 -97 150 -168 244 -141 184 -318 358
-512 503 -58 44 -112 84 -120 91 -8 7 -24 17 -35 23 -11 6 -66 39 -122 72 -84
51 -323 172 -337 172 -3 0 -17 5 -33 12 -15 6 -30 12 -33 13 -3 1 -17 7 -33
13 -30 13 -173 62 -197 68 -8 2 -49 12 -90 24 -41 11 -109 26 -150 35 -41 8
-84 16 -96 19 -11 2 -45 7 -75 10 -30 4 -67 9 -84 12 -33 6 -481 14 -487 9z
m-791 -1674 c19 -2 64 -51 75 -81 20 -59 90 -71 358 -64 118 3 242 7 275 9 97
8 187 15 230 19 22 2 81 6 130 10 50 4 108 9 130 12 22 2 72 7 110 10 88 6
152 12 229 19 76 7 276 18 338 19 27 1 48 3 48 6 0 11 382 10 403 -2 42 -22
71 -80 84 -167 15 -105 1 -169 -44 -198 -39 -26 -222 -25 -473 2 -19 2 -62 6
-95 9 -33 3 -82 8 -110 11 -71 8 -131 14 -200 21 -33 3 -73 7 -90 9 -16 2 -61
6 -100 9 -38 4 -86 8 -107 11 -23 3 -38 0 -40 -8 -3 -6 -6 -93 -7 -192 -5
-324 -16 -637 -26 -740 -5 -50 -15 -175 -20 -250 -2 -22 -4 -40 -5 -40 0 0 -3
-22 -5 -50 -2 -27 -6 -63 -9 -80 -3 -16 -8 -57 -12 -89 -3 -33 -7 -64 -9 -70
-1 -6 -5 -31 -9 -56 -10 -64 -14 -85 -16 -85 -1 0 -3 -11 -6 -25 -2 -14 -6
-36 -8 -50 -15 -86 -63 -221 -84 -234 -12 -7 -88 -9 -112 -3 -24 6 -53 18 -87
35 -33 16 -69 74 -58 91 3 5 2 12 -3 15 -9 5 -8 134 2 211 3 28 8 70 11 94 3
23 8 57 11 75 4 17 8 42 9 56 2 14 4 25 5 25 1 0 3 9 4 20 10 72 22 143 26
148 1 1 3 13 5 27 2 14 5 34 8 45 3 11 8 42 11 69 4 27 9 52 11 55 1 3 6 24 9
46 8 47 14 81 21 115 3 14 8 41 11 60 2 19 9 58 14 85 5 28 12 68 15 90 3 22
7 51 10 65 30 191 51 415 41 454 -10 40 -55 51 -216 51 -80 0 -172 -5 -205
-10 -69 -10 -269 -12 -335 -3 -59 9 -172 44 -221 70 -40 21 -108 89 -110 111
0 6 -2 20 -4 30 -5 24 14 87 25 87 6 0 10 6 10 13 0 26 89 86 123 82 12 -1 27
-3 34 -4z"/>
<path d="M11303 9198 c-12 -13 -45 -61 -74 -108 -29 -47 -56 -87 -60 -90 -3
-3 -9 -15 -13 -27 -4 -13 -11 -23 -15 -23 -4 0 -16 -19 -27 -42 -10 -24 -50
-92 -88 -153 -39 -60 -82 -132 -96 -160 -14 -27 -44 -81 -67 -120 -23 -38 -51
-99 -63 -135 -13 -36 -31 -77 -41 -91 -10 -14 -21 -38 -25 -53 -4 -16 -21 -58
-39 -95 -17 -36 -49 -109 -69 -162 -20 -53 -45 -105 -55 -115 -9 -11 -18 -22
-19 -26 -1 -5 -2 -9 -3 -10 0 -2 -2 -13 -5 -25 -7 -40 -80 -198 -111 -241 -39
-53 -50 -105 -29 -137 36 -55 92 -91 126 -80 15 5 102 167 148 275 30 72 35
85 37 93 2 4 4 9 5 12 1 3 3 8 4 13 2 4 21 46 43 93 34 71 87 217 97 264 1 6
7 20 14 31 6 12 8 24 5 28 -3 3 -1 6 5 6 7 0 12 4 12 10 0 19 219 456 255 510
62 92 63 92 59 9 -4 -70 -7 -105 -19 -224 -4 -45 -10 -78 -23 -125 -2 -8 -5
-53 -7 -100 -2 -47 -4 -87 -5 -90 -1 -3 -1 -9 0 -15 5 -27 3 -82 -4 -93 -4 -6
-4 -12 1 -12 4 0 8 -17 9 -38 2 -124 28 -187 90 -217 84 -40 137 -23 208 65
20 25 41 50 46 57 6 7 10 16 10 22 0 5 4 11 8 13 8 3 99 133 129 183 6 11 44
84 83 163 40 79 87 163 106 188 19 24 34 46 34 49 0 3 16 28 35 55 19 27 34
51 34 52 -2 4 72 120 85 134 6 6 17 21 25 32 13 18 38 22 27 4 -6 -11 -17 -82
-21 -142 -5 -72 -14 -146 -22 -195 -4 -22 -8 -44 -9 -50 -1 -5 -3 -13 -4 -17
-5 -15 -18 -89 -25 -143 -2 -11 -6 -33 -9 -50 -2 -16 -8 -50 -11 -75 -3 -25
-8 -56 -10 -70 -23 -146 -27 -520 -6 -612 7 -35 25 -74 46 -101 28 -37 41 -45
76 -50 24 -3 51 -1 62 4 26 15 45 65 51 136 5 55 3 62 -19 81 -14 12 -28 34
-32 49 -10 36 -9 288 1 373 4 36 9 80 12 99 2 19 11 84 20 145 16 102 19 148
14 201 -2 21 5 59 14 74 3 5 13 42 22 82 8 41 17 83 20 94 2 11 6 31 9 45 5
27 12 50 70 230 46 145 48 156 23 205 -28 58 -77 89 -130 82 -57 -8 -80 -27
-175 -148 -46 -57 -90 -112 -98 -121 -8 -10 -15 -20 -15 -23 0 -3 -17 -27 -37
-54 -21 -26 -45 -58 -53 -71 -8 -12 -20 -28 -25 -34 -6 -6 -42 -56 -80 -111
-38 -55 -73 -101 -77 -103 -4 -2 -8 -12 -8 -22 0 -25 -21 -70 -32 -70 -5 0
-19 -22 -31 -48 -25 -55 -83 -147 -109 -176 -10 -11 -18 -26 -18 -33 0 -7 -4
-13 -10 -13 -5 0 -10 -6 -10 -12 -1 -7 -28 -42 -60 -78 l-60 -64 -1 44 c0 25
-4 54 -8 65 -5 11 -4 34 1 50 14 46 18 64 34 145 2 14 7 45 9 70 12 108 15
136 20 160 12 61 15 77 20 116 3 23 7 59 10 80 7 75 17 139 22 147 2 4 6 19 9
32 2 14 6 37 9 53 9 44 13 64 19 117 7 47 5 52 -26 85 -82 87 -114 102 -145
68z"/>
<path d="M9538 9188 c-16 -5 -29 -15 -29 -21 -3 -30 -25 -112 -39 -142 -7 -16
-41 -116 -45 -135 -1 -3 -7 -18 -13 -33 -7 -15 -15 -39 -18 -53 -3 -13 -10
-27 -15 -30 -5 -3 -9 -11 -9 -19 0 -8 -5 -26 -12 -42 -6 -15 -12 -32 -14 -38
-6 -26 -87 -221 -95 -229 -5 -6 -9 -18 -9 -28 0 -10 -5 -18 -12 -18 -6 0 -8
-3 -5 -6 3 -4 2 -14 -2 -23 -5 -9 -11 -31 -14 -49 -3 -18 -12 -43 -20 -55 -8
-13 -17 -43 -20 -67 -3 -25 -6 -46 -6 -47 -1 -1 -7 -8 -14 -15 -20 -21 -133
-328 -120 -328 3 0 0 -6 -6 -13 -6 -8 -8 -17 -5 -20 4 -3 -3 -37 -15 -75 -39
-130 -45 -242 -17 -316 19 -50 39 -66 83 -66 34 0 48 9 49 33 1 9 4 56 8 105
3 48 12 112 21 142 8 30 17 64 19 75 1 11 8 30 15 43 6 12 9 22 5 22 -3 0 -1
7 6 15 7 8 10 15 7 15 -5 0 11 66 28 118 3 7 5 13 5 15 0 1 13 40 30 87 16 47
30 94 30 105 0 11 7 29 15 39 8 11 15 26 15 35 0 19 62 174 72 182 5 3 10 16
11 27 1 12 5 22 9 22 4 0 8 9 8 20 0 11 5 20 10 20 6 0 10 8 10 18 0 10 5 23
12 30 7 7 9 12 5 12 -4 0 -1 13 8 29 8 17 17 38 19 48 1 10 18 50 36 88 19 39
34 72 35 75 0 3 20 46 44 95 68 142 79 182 72 276 -2 24 -67 89 -88 88 -10 0
-30 -5 -45 -11z"/>
<path d="M7916 9163 c-3 -3 -88 -7 -188 -9 -101 -2 -194 -6 -208 -9 -142 -31
-235 -35 -253 -11 -7 8 -27 18 -44 21 -33 5 -41 0 -75 -48 -8 -10 -30 -19 -53
-22 -76 -8 -259 -56 -278 -73 -26 -22 -46 -70 -39 -94 6 -24 40 -32 110 -24
136 17 140 16 137 -2 -2 -9 -4 -17 -5 -17 -1 0 -3 -9 -5 -20 -2 -11 -15 -54
-29 -95 -15 -41 -28 -80 -29 -87 -2 -7 -6 -16 -10 -19 -4 -4 -7 -14 -7 -23 0
-9 -6 -28 -14 -42 -7 -14 -16 -37 -20 -52 -3 -14 -11 -39 -18 -54 -6 -15 -13
-36 -14 -46 -7 -31 -57 -121 -86 -152 -16 -16 -31 -41 -33 -55 -16 -83 -38
-157 -61 -208 -45 -100 -76 -174 -81 -197 -1 -5 -11 -35 -21 -65 -45 -126 -60
-177 -109 -375 -3 -11 -5 -28 -4 -39 0 -41 88 -102 122 -85 15 7 34 53 31 70
0 3 6 28 14 55 9 27 18 63 21 79 5 35 76 245 98 292 8 17 15 35 15 40 0 5 9
28 20 51 11 22 20 45 20 50 0 5 12 36 27 68 15 33 28 62 28 65 0 4 19 46 54
117 5 11 59 15 256 17 260 4 284 5 447 30 81 12 99 46 67 127 -13 33 -36 41
-86 33 -71 -12 -88 -14 -163 -20 -41 -4 -95 -9 -120 -11 -25 -3 -52 -5 -60 -5
-8 1 -31 0 -50 0 -69 -2 -185 0 -202 4 -28 5 -29 12 -11 53 9 21 18 44 19 49
15 64 189 463 216 497 17 20 103 45 188 53 36 4 79 8 95 10 111 15 157 17 213
13 23 -2 42 0 42 5 0 4 3 6 8 4 12 -8 142 -19 221 -20 59 0 76 3 87 17 17 24
9 57 -18 80 -13 10 -22 24 -20 31 3 16 -22 28 -83 40 -16 3 -35 7 -42 10 -6 2
-14 1 -17 -2z"/>
<path d="M14068 8862 c-17 -10 -28 -25 -28 -38 0 -30 -26 -79 -60 -110 -20
-20 -27 -34 -24 -52 13 -69 69 -119 119 -106 28 7 118 106 130 144 13 40 6 89
-18 125 -33 51 -76 64 -119 37z"/>
<path d="M14830 8492 c-44 -14 -163 -76 -210 -110 -130 -91 -230 -199 -230
-248 0 -8 -3 -14 -8 -14 -12 0 -4 -110 13 -170 8 -30 17 -59 18 -65 9 -30 52
-116 87 -171 21 -34 36 -64 33 -68 -3 -3 0 -12 6 -20 7 -8 11 -29 9 -47 -3
-28 -10 -37 -50 -57 -74 -38 -135 -33 -232 17 -101 53 -115 46 -81 -40 27 -68
48 -90 123 -126 86 -41 262 -37 342 8 46 26 68 70 65 129 -2 46 -19 119 -35
149 -5 9 -34 61 -64 116 -59 106 -82 171 -80 220 1 17 2 42 3 57 1 19 19 45
59 85 68 69 87 84 144 115 24 13 45 26 48 30 3 3 29 15 57 26 41 15 56 17 68
8 14 -10 14 -14 -5 -34 -41 -44 -46 -101 -13 -169 19 -41 31 -50 67 -55 28 -3
31 1 83 112 45 98 53 121 49 158 -6 56 -52 122 -99 145 -37 17 -138 29 -167
19z"/>
<path d="M9980 8440 c-81 -15 -176 -82 -265 -191 -35 -42 -160 -259 -149 -259
2 0 -3 -14 -12 -32 -20 -38 -53 -157 -62 -218 -7 -54 -7 -155 1 -192 18 -87
86 -176 163 -213 48 -22 134 -29 187 -13 23 6 44 12 47 12 20 4 70 30 70 37 0
5 11 9 24 9 13 0 34 11 47 24 13 13 34 26 46 30 27 9 99 80 119 117 12 24 11
29 -11 53 -13 14 -34 26 -46 26 -23 0 -91 -36 -199 -106 -91 -59 -189 -75
-256 -42 -45 22 -59 141 -30 258 23 93 23 92 39 128 13 31 15 32 30 18 8 -9
17 -19 19 -24 7 -17 67 -52 95 -55 16 -2 33 -6 38 -9 6 -3 32 -4 58 -2 120 7
252 121 316 273 45 106 47 170 10 249 -25 51 -35 62 -81 84 -85 42 -129 51
-198 38z m139 -174 c29 -89 -52 -250 -151 -302 -50 -26 -88 -25 -115 4 -21 23
-28 42 -24 66 1 4 -14 6 -33 4 -32 -4 -34 -2 -24 17 27 52 131 162 204 214 35
25 88 40 116 33 9 -2 22 -18 27 -36z"/>
<path d="M8293 8411 c-29 -10 -74 -35 -100 -56 -75 -60 -200 -195 -214 -229
-7 -17 -19 -35 -26 -39 -7 -4 -13 -12 -13 -18 0 -5 -18 -34 -40 -64 -22 -30
-63 -101 -91 -157 -28 -57 -55 -111 -60 -120 -5 -10 -9 -25 -9 -33 0 -8 -4
-15 -8 -15 -4 0 -9 -11 -10 -26 -1 -14 -6 -33 -10 -42 -28 -56 37 -202 89
-202 10 0 20 -4 24 -9 7 -12 86 -6 134 10 73 24 205 107 276 174 125 117 171
164 194 196 l27 37 17 -44 c45 -122 151 -260 228 -296 72 -34 156 -31 181 6
13 19 9 64 -7 79 -8 8 -39 23 -69 32 -51 16 -116 61 -116 80 0 5 -6 16 -13 24
-26 31 -50 115 -52 185 -2 61 4 90 35 185 l38 113 -20 16 c-23 19 -109 97
-172 156 -22 21 -50 45 -61 52 -33 22 -96 24 -152 5z m139 -188 c10 -9 26 -30
37 -48 15 -26 17 -37 7 -53 -6 -10 -20 -35 -30 -53 -10 -19 -22 -36 -25 -39
-3 -3 -25 -31 -49 -62 -42 -54 -242 -254 -313 -310 -31 -25 -92 -58 -145 -78
-39 -15 -45 2 -19 58 13 29 22 52 20 52 -2 0 12 27 31 61 18 33 34 65 34 70 0
5 4 9 9 9 5 0 13 9 16 21 17 53 178 265 257 339 77 71 119 79 170 33z"/>
<path d="M12985 8343 c-51 -26 -91 -56 -150 -118 -134 -138 -204 -245 -298
-456 -45 -99 -55 -232 -21 -271 72 -84 132 -100 241 -68 23 7 52 22 63 32 11
11 30 21 41 23 11 2 32 15 47 28 47 42 105 92 149 125 l42 33 17 -33 c10 -18
19 -38 20 -45 1 -6 13 -26 25 -44 64 -88 116 -119 197 -120 96 0 146 20 183
73 13 18 26 35 31 38 4 3 14 22 23 43 15 36 15 37 -12 54 -16 10 -30 21 -33
25 -3 4 -30 -10 -60 -32 -30 -22 -66 -45 -80 -51 -93 -40 -155 11 -153 126 1
64 37 217 60 250 21 32 16 76 -30 230 -24 81 -70 138 -125 156 -20 6 -41 15
-47 19 -28 21 -63 16 -130 -17z m161 -155 c19 -36 15 -138 -6 -163 -7 -8 -10
-15 -6 -15 3 0 -6 -23 -21 -51 -25 -48 -222 -259 -242 -259 -4 0 -28 -16 -52
-35 -24 -19 -50 -35 -56 -35 -7 0 -13 -4 -13 -8 0 -12 -90 -53 -101 -47 -19
13 -8 70 29 144 54 107 196 321 214 321 4 0 8 4 8 10 0 18 123 140 154 155 66
29 69 28 92 -17z"/>
<path d="M13875 8174 c-14 -15 -25 -35 -25 -45 0 -20 -57 -195 -106 -324 -35
-93 -38 -102 -49 -179 -4 -26 -11 -48 -15 -51 -4 -3 -6 -27 -5 -54 4 -82 74
-171 110 -141 13 11 33 63 42 114 2 11 8 24 13 31 5 6 11 22 14 35 3 14 9 40
15 58 5 17 8 32 6 32 -2 0 3 17 12 38 9 20 33 84 53 142 21 58 47 132 60 165
29 80 28 114 -6 161 -38 51 -82 58 -119 18z"/>
<path d="M492 5528 c-35 -4 -85 -17 -110 -29 -54 -26 -143 -111 -190 -182
-118 -176 -116 -322 5 -457 106 -118 324 -160 464 -89 47 24 69 59 69 111 -1
70 -50 113 -125 109 -68 -4 -79 -4 -102 -2 -36 2 -74 42 -83 88 -15 84 49 131
185 139 39 2 72 4 75 5 3 1 9 1 14 0 5 -1 61 -4 125 -6 64 -3 139 -7 166 -10
131 -14 153 -17 200 -26 55 -10 66 -17 67 -45 2 -25 -36 -167 -63 -238 -11
-31 -20 -58 -20 -61 1 -3 -10 -30 -24 -60 -13 -31 -25 -59 -26 -63 -4 -15 -25
-65 -89 -212 -46 -105 -148 -313 -185 -375 -13 -22 -29 -51 -35 -64 -18 -41
-143 -157 -198 -185 -29 -14 -52 -23 -52 -20 0 4 -6 1 -13 -5 -21 -17 -101
-16 -139 2 -106 50 -125 176 -51 342 75 171 86 201 88 253 2 46 -1 55 -21 69
-43 28 -160 -7 -265 -79 -50 -35 -99 -86 -99 -104 0 -4 -6 -15 -14 -23 -27
-30 -46 -133 -42 -222 12 -241 158 -446 365 -509 84 -26 158 -25 297 3 7 2 47
20 90 42 63 30 98 57 172 132 50 52 92 98 92 104 0 5 8 19 18 30 11 10 25 32
32 47 8 15 20 34 26 42 16 19 143 270 137 270 -2 0 3 12 11 28 16 27 29 59
111 264 25 62 50 122 54 133 5 11 17 38 26 60 141 324 182 355 495 380 153 12
197 18 265 36 122 32 143 78 57 123 -67 35 -223 73 -372 91 -25 3 -58 8 -75
10 -32 4 -104 11 -200 21 -115 11 -222 23 -255 30 -14 2 -43 6 -65 9 -100 11
-310 41 -310 45 0 1 -13 3 -30 5 -16 2 -57 9 -90 14 -82 14 -121 20 -185 27
-95 10 -113 10 -178 2z"/>
<path d="M3200 5272 c-8 -3 -20 -10 -26 -16 -6 -6 -22 -21 -35 -33 -29 -26
-32 -30 -92 -116 -26 -37 -47 -72 -47 -77 0 -4 -3 -10 -7 -12 -5 -1 -18 -21
-31 -43 -24 -42 -189 -377 -213 -432 -8 -18 -17 -33 -21 -33 -5 0 -8 -5 -8
-12 0 -12 -96 -186 -137 -248 -13 -19 -29 -44 -36 -54 -60 -93 -182 -224 -255
-273 -130 -86 -291 -101 -413 -37 -63 32 -78 83 -36 121 30 28 105 62 147 67
19 3 35 5 35 6 0 1 11 3 25 5 41 5 160 45 160 54 0 5 12 12 26 15 35 9 174
150 208 211 33 61 58 163 52 214 -9 84 -77 165 -175 212 -36 17 -65 22 -136
23 -103 1 -133 -4 -218 -40 -112 -47 -259 -161 -342 -264 -30 -38 -88 -130
-106 -170 -9 -19 -21 -46 -28 -60 -11 -25 -13 -33 -30 -120 -10 -49 -8 -148 4
-195 24 -91 90 -181 165 -221 19 -10 38 -23 42 -29 4 -5 8 -6 8 -2 0 4 10 2
22 -4 13 -7 32 -14 43 -15 11 -2 31 -6 45 -9 94 -25 262 -25 330 -1 8 3 27 7
42 10 15 3 69 25 120 49 110 53 133 60 175 59 40 -2 76 -20 128 -66 119 -104
252 -107 405 -7 91 59 216 180 315 306 21 27 44 56 50 63 5 7 18 22 28 33 9
10 17 24 17 29 0 6 3 10 8 10 4 0 18 18 32 40 13 22 28 40 32 40 4 0 8 5 8 10
0 10 67 111 80 120 4 3 14 19 23 36 24 46 91 102 132 110 22 4 48 1 68 -7 17
-8 34 -14 37 -14 11 0 86 -50 103 -69 9 -10 17 -26 17 -34 0 -37 -57 -102
-170 -192 -281 -226 -410 -351 -410 -399 0 -23 131 -71 236 -86 21 -3 50 -8
64 -10 59 -9 232 -19 320 -19 142 1 214 12 294 46 87 38 147 40 205 7 23 -12
41 -27 41 -31 0 -5 21 -18 46 -30 46 -20 111 -21 181 -5 71 18 224 121 309
209 82 85 224 280 224 307 0 4 9 16 20 26 11 10 17 21 15 26 -3 4 0 13 7 21 7
7 39 51 70 98 133 197 227 243 220 107 -2 -46 -8 -92 -12 -92 -1 0 -3 -11 -6
-25 -2 -14 -10 -41 -16 -60 -7 -19 -13 -38 -14 -42 -1 -5 -3 -10 -4 -13 -1 -3
-3 -8 -5 -12 -1 -5 -6 -19 -12 -33 -15 -36 -51 -158 -59 -200 -40 -215 48
-354 212 -337 79 8 105 15 122 29 10 7 33 21 53 31 32 16 50 29 106 78 26 23
93 98 129 144 46 60 114 177 108 186 -5 9 -46 -4 -67 -21 -6 -5 -32 -26 -57
-46 -45 -35 -165 -142 -224 -199 -17 -16 -43 -41 -58 -54 l-27 -24 4 24 c18
113 21 131 30 204 4 42 17 116 30 185 4 22 19 171 19 195 0 51 -17 131 -34
164 -10 20 -50 68 -88 108 -79 81 -108 134 -123 222 -24 136 -135 162 -197 46
-9 -16 -17 -32 -17 -35 -1 -3 -9 -31 -19 -64 -10 -32 -19 -64 -20 -70 -7 -29
-18 -72 -23 -86 -4 -8 -6 -18 -5 -21 1 -3 -10 -50 -23 -104 -31 -125 -131
-328 -207 -420 -5 -5 -25 -32 -45 -60 -54 -73 -174 -193 -205 -206 -16 -6 -28
-15 -28 -20 0 -15 -57 -10 -70 6 -38 46 0 215 124 544 115 306 122 395 31 420
-67 18 -110 0 -168 -71 -47 -59 -123 -206 -133 -258 0 -3 -6 -18 -12 -33 -7
-16 -12 -30 -12 -32 0 -21 -101 -207 -127 -233 -7 -7 -13 -17 -13 -21 0 -4
-27 -35 -61 -70 -57 -58 -148 -119 -194 -130 -115 -28 -285 47 -285 126 0 37
64 125 137 190 36 32 82 73 102 90 20 18 39 33 42 33 7 0 48 37 122 108 60 58
86 100 92 146 4 29 0 38 -26 60 -25 22 -145 68 -167 65 -4 -1 -9 0 -12 1 -19
7 -253 23 -345 24 -130 1 -178 -16 -245 -84 -30 -31 -64 -74 -75 -95 -11 -22
-23 -42 -26 -45 -3 -3 -32 -56 -64 -119 -61 -119 -172 -294 -234 -370 -85
-103 -243 -241 -275 -241 -37 0 -41 71 -12 208 6 27 55 191 63 212 8 20 8 20
18 55 4 17 11 35 15 40 4 6 18 42 30 80 12 39 26 75 30 80 4 6 13 28 20 50 7
22 17 46 23 53 5 6 6 12 2 12 -4 0 -3 6 2 13 6 6 24 49 42 94 17 45 37 97 45
115 47 105 108 272 118 322 12 54 11 59 -7 72 -18 14 -92 17 -125 6z m-1046
-738 c29 -28 16 -94 -26 -138 -65 -66 -151 -105 -245 -111 -65 -4 -69 10 -22
76 100 139 243 224 293 173z"/>
</g>
</svg>
