<svg preserveAspectRatio="xMidYMid meet" viewBox="0 0 165.000000 165.000000" height="165.000000pt" width="165.000000pt" xmlns="http://www.w3.org/2000/svg" version="1.0">

<g stroke="none" fill="#000" transform="translate(0.000000,165.000000) scale(0.100000,-0.100000)">
<path d="M744 1366 c-233 -58 -308 -346 -134 -515 59 -57 136 -84 225 -79 115
8 203 65 252 166 37 76 39 181 4 259 -58 129 -209 203 -347 169z m-32 -188 c3
-8 33 -8 122 0 65 6 123 9 127 6 5 -3 9 -14 9 -26 0 -19 -4 -20 -70 -13 l-70
7 -1 -53 c-2 -83 -13 -162 -24 -166 -5 -1 -16 1 -22 5 -10 6 -8 29 6 102 10
52 16 99 13 103 -2 5 -23 6 -46 3 -45 -7 -85 11 -72 32 9 15 23 15 28 0z"></path>
</g>

<g stroke="none" fill="#FA1200" transform="translate(0.000000,165.000000) scale(0.100000,-0.100000)">
<path d="M507 693 c-20 -23 -22 -44 -5 -61 18 -18 58 -15 58 3 0 10 -7 15 -17
13 -11 -2 -18 3 -18 12 0 11 11 15 44 13 24 -1 45 -4 48 -6 6 -7 -37 -110 -54
-129 -32 -35 -65 -13 -42 28 15 30 8 39 -20 24 -43 -22 -18 -100 32 -100 39 0
64 28 92 99 28 70 28 70 69 73 61 4 50 22 -19 29 -33 3 -80 9 -105 14 -38 6
-48 4 -63 -12z"></path>
<path d="M792 618 c-33 -72 -61 -101 -92 -96 -29 4 -26 22 5 26 34 4 62 46 45
67 -41 49 -138 -39 -103 -94 13 -20 56 -26 84 -11 15 9 24 9 32 1 26 -26 59
-5 108 68 12 19 19 22 33 14 17 -9 15 -13 -18 -39 -20 -16 -36 -32 -36 -35 0
-12 81 -19 99 -10 12 7 22 6 29 -1 18 -18 58 6 84 51 32 57 50 54 28 -3 -26
-70 38 -75 75 -6 5 8 -4 4 -20 -10 l-27 -25 6 41 c6 31 3 44 -8 54 -9 7 -16
19 -16 26 0 8 -5 14 -10 14 -11 0 -14 -7 -24 -52 -7 -32 -51 -86 -61 -76 -4 4
0 25 9 48 20 50 20 60 2 60 -8 0 -19 -15 -26 -34 -13 -42 -42 -69 -64 -60 -23
9 -20 19 15 47 39 30 33 42 -20 45 -37 3 -42 0 -60 -35 -10 -21 -28 -47 -40
-57 -19 -17 -21 -17 -21 -2 0 9 11 44 25 78 29 72 29 68 10 68 -8 0 -27 -27
-43 -62z m-74 -30 c-3 -7 -13 -15 -24 -17 -16 -3 -17 -1 -5 13 16 19 34 21 29
4z"></path>
</g>

</svg>
